<svg xmlns="http://www.w3.org/2000/svg" viewBox="0 0 1000 360" role="img" aria-label="Keep two kinds of entities separate"><title>Keep two kinds of entities separate</title><line x1="320" y1="65" x2="680" y2="185" stroke="#ACBEC4" stroke-width="3"/><line x1="320" y1="65" x2="680" y2="280" stroke="#ACBEC4" stroke-width="3"/><line x1="320" y1="135" x2="680" y2="90" stroke="#ACBEC4" stroke-width="3"/><line x1="320" y1="205" x2="680" y2="185" stroke="#ACBEC4" stroke-width="3"/><line x1="320" y1="275" x2="680" y2="280" stroke="#ACBEC4" stroke-width="3"/><rect x="130" y="38" width="190" height="48" rx="4" fill="#F7F5EF" stroke="#245B72" stroke-width="2"/><text x="225.0" y="70.0" font-family="Arial, sans-serif" font-size="22" text-anchor="middle" fill="#172B38">Input 1</text><rect x="130" y="108" width="190" height="48" rx="4" fill="#F7F5EF" stroke="#245B72" stroke-width="2"/><text x="225.0" y="140.0" font-family="Arial, sans-serif" font-size="22" text-anchor="middle" fill="#172B38">Input 2</text><rect x="130" y="178" width="190" height="48" rx="4" fill="#F7F5EF" stroke="#245B72" stroke-width="2"/><text x="225.0" y="210.0" font-family="Arial, sans-serif" font-size="22" text-anchor="middle" fill="#172B38">Input 3</text><rect x="130" y="248" width="190" height="48" rx="4" fill="#F7F5EF" stroke="#245B72" stroke-width="2"/><text x="225.0" y="280.0" font-family="Arial, sans-serif" font-size="22" text-anchor="middle" fill="#172B38">Input 4</text><rect x="680" y="62" width="190" height="55" rx="4" fill="#F7F5EF" stroke="#245B72" stroke-width="2"/><text x="775.0" y="97.5" font-family="Arial, sans-serif" font-size="22" text-anchor="middle" fill="#172B38">Group 1</text><rect x="680" y="157" width="190" height="55" rx="4" fill="#F7F5EF" stroke="#245B72" stroke-width="2"/><text x="775.0" y="192.5" font-family="Arial, sans-serif" font-size="22" text-anchor="middle" fill="#172B38">Group 2</text><rect x="680" y="252" width="190" height="55" rx="4" fill="#F7F5EF" stroke="#245B72" stroke-width="2"/><text x="775.0" y="287.5" font-family="Arial, sans-serif" font-size="22" text-anchor="middle" fill="#172B38">Group 3</text></svg>