<svg aria-labelledby="g-botanical-study-botanical-study-title g-botanical-study-botanical-study-desc" role="img" viewBox="0 0 800 440" xmlns="http://www.w3.org/2000/svg"><title id="g-botanical-study-botanical-study-title">Botanical line study</title><desc id="g-botanical-study-botanical-study-desc">Introduce organic line and negative space. Original schematic. Values are illustrative, not measured.</desc><g data-part="drawing"><path d="M400 385Q420 200 340 65" fill="none" stroke="#17252d" stroke-width="4"></path><path d="M403 325Q303 255 323 205Q408 225 403 325" fill="#dce6e8" stroke="#28617b" stroke-width="2"></path><path d="M392 255Q292 185 312 135Q397 155 392 255" fill="#dce6e8" stroke="#28617b" stroke-width="2"></path><path d="M372 175Q272 105 292 55Q377 75 372 175" fill="#dce6e8" stroke="#28617b" stroke-width="2"></path><path d="M409 350Q529 325 539 255Q429 250 409 350" fill="#dce6e8" stroke="#28617b" stroke-width="2"></path><path d="M400 275Q520 250 530 180Q420 175 400 275" fill="#dce6e8" stroke="#28617b" stroke-width="2"></path><path d="M381 190Q501 165 511 95Q401 90 381 190" fill="#dce6e8" stroke="#28617b" stroke-width="2"></path></g></svg>