<svg xmlns="http://www.w3.org/2000/svg" viewBox="0 0 1000 360" role="img" aria-label="Keep the pairs visible"><title>Keep the pairs visible</title><text x="290" y="25" font-family="Arial, sans-serif" font-size="22" text-anchor="middle" fill="#172B38">Before</text><text x="710" y="25" font-family="Arial, sans-serif" font-size="22" text-anchor="middle" fill="#172B38">After</text><line x1="290" y1="55" x2="290" y2="290" stroke="#ACBEC4" stroke-width="2"/><line x1="710" y1="55" x2="710" y2="290" stroke="#ACBEC4" stroke-width="2"/><line x1="290" y1="215" x2="710" y2="165" stroke="#ACBEC4" stroke-width="2"/><circle cx="290" cy="215" r="5" fill="#526975"/><circle cx="710" cy="165" r="6" fill="#245B72"/><line x1="290" y1="260" x2="710" y2="202" stroke="#ACBEC4" stroke-width="2"/><circle cx="290" cy="260" r="5" fill="#526975"/><circle cx="710" cy="202" r="6" fill="#245B72"/><line x1="290" y1="155" x2="710" y2="120" stroke="#ACBEC4" stroke-width="2"/><circle cx="290" cy="155" r="5" fill="#526975"/><circle cx="710" cy="120" r="6" fill="#245B72"/><line x1="290" y1="185" x2="710" y2="173" stroke="#ACBEC4" stroke-width="2"/><circle cx="290" cy="185" r="5" fill="#526975"/><circle cx="710" cy="173" r="6" fill="#245B72"/><line x1="290" y1="92" x2="710" y2="68" stroke="#ACBEC4" stroke-width="2"/><circle cx="290" cy="92" r="5" fill="#526975"/><circle cx="710" cy="68" r="6" fill="#245B72"/><line x1="290" y1="122" x2="710" y2="104" stroke="#ACBEC4" stroke-width="2"/><circle cx="290" cy="122" r="5" fill="#526975"/><circle cx="710" cy="104" r="6" fill="#245B72"/><line x1="290" y1="245" x2="710" y2="250" stroke="#ACBEC4" stroke-width="2"/><circle cx="290" cy="245" r="5" fill="#526975"/><circle cx="710" cy="250" r="6" fill="#245B72"/><line x1="290" y1="70" x2="710" y2="45" stroke="#ACBEC4" stroke-width="2"/><circle cx="290" cy="70" r="5" fill="#526975"/><circle cx="710" cy="45" r="6" fill="#245B72"/><text x="500" y="340" font-family="Arial, sans-serif" font-size="19" text-anchor="middle" fill="#172B38">Each line represents one illustrative paired observation.</text></svg>