<svg xmlns="http://www.w3.org/2000/svg" viewBox="0 0 1000 360" role="img" aria-label="Show where a value came from"><title>Show where a value came from</title><line x1="240" y1="170" x2="410" y2="95" stroke="#245B72" stroke-width="2.5"/><path d="M410 95 L397.0027853482434 95.26909347105087 L401.0391874140063 104.41827148678018Z" fill="#245B72" stroke="#245B72" stroke-width="1" stroke-linejoin="round"/><line x1="240" y1="170" x2="410" y2="265" stroke="#245B72" stroke-width="2.5"/><path d="M410 265 L401.9637850026775 254.78142629733438 L397.08557142602814 263.510861118707Z" fill="#245B72" stroke="#245B72" stroke-width="1" stroke-linejoin="round"/><line x1="580" y1="95" x2="745" y2="170" stroke="#245B72" stroke-width="2.5"/><path d="M745 170 L736.1446169919546 160.48253228107276 L732.0065875489428 169.58619705569882Z" fill="#245B72" stroke="#245B72" stroke-width="1" stroke-linejoin="round"/><line x1="580" y1="265" x2="745" y2="170" stroke="#245B72" stroke-width="2.5"/><path d="M745 170 L732.1057082931752 171.65446105403248 L737.0953527418446 180.3206856227742Z" fill="#245B72" stroke="#245B72" stroke-width="1" stroke-linejoin="round"/><rect x="40" y="130" width="200" height="80" rx="4" fill="#F7F5EF" stroke="#245B72" stroke-width="2"/><text x="140.0" y="178.0" font-family="Arial, sans-serif" font-size="22" text-anchor="middle" fill="#172B38">Source</text><rect x="410" y="60" width="170" height="70" rx="4" fill="#F7F5EF" stroke="#245B72" stroke-width="2"/><text x="495.0" y="103.0" font-family="Arial, sans-serif" font-size="22" text-anchor="middle" fill="#172B38">Clean</text><rect x="410" y="230" width="170" height="70" rx="4" fill="#F7F5EF" stroke="#245B72" stroke-width="2"/><text x="495.0" y="273.0" font-family="Arial, sans-serif" font-size="22" text-anchor="middle" fill="#172B38">Validate</text><rect x="745" y="130" width="215" height="80" rx="4" fill="#F7F5EF" stroke="#245B72" stroke-width="2"/><text x="852.5" y="178.0" font-family="Arial, sans-serif" font-size="22" text-anchor="middle" fill="#172B38">Derived table</text></svg>