# Original Slide Studio fixture. Units: millimetres. Z up. No certified engineering use.
v -45.000000 -36.000000 -20.000000
v 45.000000 -36.000000 -20.000000
v 45.000000 36.000000 -20.000000
v -45.000000 36.000000 -20.000000
v -45.000000 -36.000000 -10.000000
v 45.000000 -36.000000 -10.000000
v 45.000000 36.000000 -10.000000
v -45.000000 36.000000 -10.000000
v 29.000000 0.000000 -7.500000
v 28.442773 5.657619 -7.500000
v 26.792506 11.097820 -7.500000
v 24.112619 16.111537 -7.500000
v 20.506097 20.506097 -7.500000
v 16.111537 24.112619 -7.500000
v 11.097820 26.792506 -7.500000
v 5.657619 28.442773 -7.500000
v 0.000000 29.000000 -7.500000
v -5.657619 28.442773 -7.500000
v -11.097820 26.792506 -7.500000
v -16.111537 24.112619 -7.500000
v -20.506097 20.506097 -7.500000
v -24.112619 16.111537 -7.500000
v -26.792506 11.097820 -7.500000
v -28.442773 5.657619 -7.500000
v -29.000000 0.000000 -7.500000
v -28.442773 -5.657619 -7.500000
v -26.792506 -11.097820 -7.500000
v -24.112619 -16.111537 -7.500000
v -20.506097 -20.506097 -7.500000
v -16.111537 -24.112619 -7.500000
v -11.097820 -26.792506 -7.500000
v -5.657619 -28.442773 -7.500000
v -0.000000 -29.000000 -7.500000
v 5.657619 -28.442773 -7.500000
v 11.097820 -26.792506 -7.500000
v 16.111537 -24.112619 -7.500000
v 20.506097 -20.506097 -7.500000
v 24.112619 -16.111537 -7.500000
v 26.792506 -11.097820 -7.500000
v 28.442773 -5.657619 -7.500000
v 16.000000 0.000000 -7.500000
v 15.692564 3.121445 -7.500000
v 14.782073 6.122935 -7.500000
v 13.303514 8.889124 -7.500000
v 11.313708 11.313708 -7.500000
v 8.889124 13.303514 -7.500000
v 6.122935 14.782073 -7.500000
v 3.121445 15.692564 -7.500000
v 0.000000 16.000000 -7.500000
v -3.121445 15.692564 -7.500000
v -6.122935 14.782073 -7.500000
v -8.889124 13.303514 -7.500000
v -11.313708 11.313708 -7.500000
v -13.303514 8.889124 -7.500000
v -14.782073 6.122935 -7.500000
v -15.692564 3.121445 -7.500000
v -16.000000 0.000000 -7.500000
v -15.692564 -3.121445 -7.500000
v -14.782073 -6.122935 -7.500000
v -13.303514 -8.889124 -7.500000
v -11.313708 -11.313708 -7.500000
v -8.889124 -13.303514 -7.500000
v -6.122935 -14.782073 -7.500000
v -3.121445 -15.692564 -7.500000
v -0.000000 -16.000000 -7.500000
v 3.121445 -15.692564 -7.500000
v 6.122935 -14.782073 -7.500000
v 8.889124 -13.303514 -7.500000
v 11.313708 -11.313708 -7.500000
v 13.303514 -8.889124 -7.500000
v 14.782073 -6.122935 -7.500000
v 15.692564 -3.121445 -7.500000
v 29.000000 0.000000 7.500000
v 28.442773 5.657619 7.500000
v 26.792506 11.097820 7.500000
v 24.112619 16.111537 7.500000
v 20.506097 20.506097 7.500000
v 16.111537 24.112619 7.500000
v 11.097820 26.792506 7.500000
v 5.657619 28.442773 7.500000
v 0.000000 29.000000 7.500000
v -5.657619 28.442773 7.500000
v -11.097820 26.792506 7.500000
v -16.111537 24.112619 7.500000
v -20.506097 20.506097 7.500000
v -24.112619 16.111537 7.500000
v -26.792506 11.097820 7.500000
v -28.442773 5.657619 7.500000
v -29.000000 0.000000 7.500000
v -28.442773 -5.657619 7.500000
v -26.792506 -11.097820 7.500000
v -24.112619 -16.111537 7.500000
v -20.506097 -20.506097 7.500000
v -16.111537 -24.112619 7.500000
v -11.097820 -26.792506 7.500000
v -5.657619 -28.442773 7.500000
v -0.000000 -29.000000 7.500000
v 5.657619 -28.442773 7.500000
v 11.097820 -26.792506 7.500000
v 16.111537 -24.112619 7.500000
v 20.506097 -20.506097 7.500000
v 24.112619 -16.111537 7.500000
v 26.792506 -11.097820 7.500000
v 28.442773 -5.657619 7.500000
v 16.000000 0.000000 7.500000
v 15.692564 3.121445 7.500000
v 14.782073 6.122935 7.500000
v 13.303514 8.889124 7.500000
v 11.313708 11.313708 7.500000
v 8.889124 13.303514 7.500000
v 6.122935 14.782073 7.500000
v 3.121445 15.692564 7.500000
v 0.000000 16.000000 7.500000
v -3.121445 15.692564 7.500000
v -6.122935 14.782073 7.500000
v -8.889124 13.303514 7.500000
v -11.313708 11.313708 7.500000
v -13.303514 8.889124 7.500000
v -14.782073 6.122935 7.500000
v -15.692564 3.121445 7.500000
v -16.000000 0.000000 7.500000
v -15.692564 -3.121445 7.500000
v -14.782073 -6.122935 7.500000
v -13.303514 -8.889124 7.500000
v -11.313708 -11.313708 7.500000
v -8.889124 -13.303514 7.500000
v -6.122935 -14.782073 7.500000
v -3.121445 -15.692564 7.500000
v -0.000000 -16.000000 7.500000
v 3.121445 -15.692564 7.500000
v 6.122935 -14.782073 7.500000
v 8.889124 -13.303514 7.500000
v 11.313708 -11.313708 7.500000
v 13.303514 -8.889124 7.500000
v 14.782073 -6.122935 7.500000
v 15.692564 -3.121445 7.500000
v -35.000000 -29.000000 12.500000
v 35.000000 -29.000000 12.500000
v 35.000000 29.000000 12.500000
v -35.000000 29.000000 12.500000
v -35.000000 -29.000000 19.500000
v 35.000000 -29.000000 19.500000
v 35.000000 29.000000 19.500000
v -35.000000 29.000000 19.500000
v -34.500000 -27.500000 -15.000000
v -29.500000 -27.500000 -15.000000
v -29.500000 -22.500000 -15.000000
v -34.500000 -22.500000 -15.000000
v -34.500000 -27.500000 15.000000
v -29.500000 -27.500000 15.000000
v -29.500000 -22.500000 15.000000
v -34.500000 -22.500000 15.000000
v -34.500000 22.500000 -15.000000
v -29.500000 22.500000 -15.000000
v -29.500000 27.500000 -15.000000
v -34.500000 27.500000 -15.000000
v -34.500000 22.500000 15.000000
v -29.500000 22.500000 15.000000
v -29.500000 27.500000 15.000000
v -34.500000 27.500000 15.000000
v 29.500000 -27.500000 -15.000000
v 34.500000 -27.500000 -15.000000
v 34.500000 -22.500000 -15.000000
v 29.500000 -22.500000 -15.000000
v 29.500000 -27.500000 15.000000
v 34.500000 -27.500000 15.000000
v 34.500000 -22.500000 15.000000
v 29.500000 -22.500000 15.000000
v 29.500000 22.500000 -15.000000
v 34.500000 22.500000 -15.000000
v 34.500000 27.500000 -15.000000
v 29.500000 27.500000 -15.000000
v 29.500000 22.500000 15.000000
v 34.500000 22.500000 15.000000
v 34.500000 27.500000 15.000000
v 29.500000 27.500000 15.000000
g Base
f 1 3 2
f 1 4 3
f 5 6 7
f 5 7 8
f 1 2 6
f 1 6 5
f 2 3 7
f 2 7 6
f 3 4 8
f 3 8 7
f 4 1 5
f 4 5 8
g Spacer
f 9 10 42
f 9 42 41
f 73 105 106
f 73 106 74
f 9 73 74
f 9 74 10
f 41 42 106
f 41 106 105
f 10 11 43
f 10 43 42
f 74 106 107
f 74 107 75
f 10 74 75
f 10 75 11
f 42 43 107
f 42 107 106
f 11 12 44
f 11 44 43
f 75 107 108
f 75 108 76
f 11 75 76
f 11 76 12
f 43 44 108
f 43 108 107
f 12 13 45
f 12 45 44
f 76 108 109
f 76 109 77
f 12 76 77
f 12 77 13
f 44 45 109
f 44 109 108
f 13 14 46
f 13 46 45
f 77 109 110
f 77 110 78
f 13 77 78
f 13 78 14
f 45 46 110
f 45 110 109
f 14 15 47
f 14 47 46
f 78 110 111
f 78 111 79
f 14 78 79
f 14 79 15
f 46 47 111
f 46 111 110
f 15 16 48
f 15 48 47
f 79 111 112
f 79 112 80
f 15 79 80
f 15 80 16
f 47 48 112
f 47 112 111
f 16 17 49
f 16 49 48
f 80 112 113
f 80 113 81
f 16 80 81
f 16 81 17
f 48 49 113
f 48 113 112
f 17 18 50
f 17 50 49
f 81 113 114
f 81 114 82
f 17 81 82
f 17 82 18
f 49 50 114
f 49 114 113
f 18 19 51
f 18 51 50
f 82 114 115
f 82 115 83
f 18 82 83
f 18 83 19
f 50 51 115
f 50 115 114
f 19 20 52
f 19 52 51
f 83 115 116
f 83 116 84
f 19 83 84
f 19 84 20
f 51 52 116
f 51 116 115
f 20 21 53
f 20 53 52
f 84 116 117
f 84 117 85
f 20 84 85
f 20 85 21
f 52 53 117
f 52 117 116
f 21 22 54
f 21 54 53
f 85 117 118
f 85 118 86
f 21 85 86
f 21 86 22
f 53 54 118
f 53 118 117
f 22 23 55
f 22 55 54
f 86 118 119
f 86 119 87
f 22 86 87
f 22 87 23
f 54 55 119
f 54 119 118
f 23 24 56
f 23 56 55
f 87 119 120
f 87 120 88
f 23 87 88
f 23 88 24
f 55 56 120
f 55 120 119
f 24 25 57
f 24 57 56
f 88 120 121
f 88 121 89
f 24 88 89
f 24 89 25
f 56 57 121
f 56 121 120
f 25 26 58
f 25 58 57
f 89 121 122
f 89 122 90
f 25 89 90
f 25 90 26
f 57 58 122
f 57 122 121
f 26 27 59
f 26 59 58
f 90 122 123
f 90 123 91
f 26 90 91
f 26 91 27
f 58 59 123
f 58 123 122
f 27 28 60
f 27 60 59
f 91 123 124
f 91 124 92
f 27 91 92
f 27 92 28
f 59 60 124
f 59 124 123
f 28 29 61
f 28 61 60
f 92 124 125
f 92 125 93
f 28 92 93
f 28 93 29
f 60 61 125
f 60 125 124
f 29 30 62
f 29 62 61
f 93 125 126
f 93 126 94
f 29 93 94
f 29 94 30
f 61 62 126
f 61 126 125
f 30 31 63
f 30 63 62
f 94 126 127
f 94 127 95
f 30 94 95
f 30 95 31
f 62 63 127
f 62 127 126
f 31 32 64
f 31 64 63
f 95 127 128
f 95 128 96
f 31 95 96
f 31 96 32
f 63 64 128
f 63 128 127
f 32 33 65
f 32 65 64
f 96 128 129
f 96 129 97
f 32 96 97
f 32 97 33
f 64 65 129
f 64 129 128
f 33 34 66
f 33 66 65
f 97 129 130
f 97 130 98
f 33 97 98
f 33 98 34
f 65 66 130
f 65 130 129
f 34 35 67
f 34 67 66
f 98 130 131
f 98 131 99
f 34 98 99
f 34 99 35
f 66 67 131
f 66 131 130
f 35 36 68
f 35 68 67
f 99 131 132
f 99 132 100
f 35 99 100
f 35 100 36
f 67 68 132
f 67 132 131
f 36 37 69
f 36 69 68
f 100 132 133
f 100 133 101
f 36 100 101
f 36 101 37
f 68 69 133
f 68 133 132
f 37 38 70
f 37 70 69
f 101 133 134
f 101 134 102
f 37 101 102
f 37 102 38
f 69 70 134
f 69 134 133
f 38 39 71
f 38 71 70
f 102 134 135
f 102 135 103
f 38 102 103
f 38 103 39
f 70 71 135
f 70 135 134
f 39 40 72
f 39 72 71
f 103 135 136
f 103 136 104
f 39 103 104
f 39 104 40
f 71 72 136
f 71 136 135
f 40 9 41
f 40 41 72
f 104 136 105
f 104 105 73
f 40 104 73
f 40 73 9
f 72 41 105
f 72 105 136
g Lid
f 137 139 138
f 137 140 139
f 141 142 143
f 141 143 144
f 137 138 142
f 137 142 141
f 138 139 143
f 138 143 142
f 139 140 144
f 139 144 143
f 140 137 141
f 140 141 144
g Pins
f 145 147 146
f 145 148 147
f 149 150 151
f 149 151 152
f 145 146 150
f 145 150 149
f 146 147 151
f 146 151 150
f 147 148 152
f 147 152 151
f 148 145 149
f 148 149 152
f 153 155 154
f 153 156 155
f 157 158 159
f 157 159 160
f 153 154 158
f 153 158 157
f 154 155 159
f 154 159 158
f 155 156 160
f 155 160 159
f 156 153 157
f 156 157 160
f 161 163 162
f 161 164 163
f 165 166 167
f 165 167 168
f 161 162 166
f 161 166 165
f 162 163 167
f 162 167 166
f 163 164 168
f 163 168 167
f 164 161 165
f 164 165 168
f 169 171 170
f 169 172 171
f 173 174 175
f 173 175 176
f 169 170 174
f 169 174 173
f 170 171 175
f 170 175 174
f 171 172 176
f 171 176 175
f 172 169 173
f 172 173 176
